<?xml version="1.0" encoding="UTF-8"?>
<svg xmlns="http://www.w3.org/2000/svg" version="1.1" viewBox="0 0 411 416.25">
  <defs>
    <style>
      .cls-1 {
        stroke-dasharray: 4 5;
      }

      .cls-1, .cls-2, .cls-3, .cls-4, .cls-5, .cls-6, .cls-7, .cls-8, .cls-9 {
        fill: none;
        stroke-miterlimit: 10;
      }

      .cls-1, .cls-3, .cls-7 {
        stroke: #fff;
      }

      .cls-10, .cls-11 {
        font-family: DejaVuSans, 'DejaVu Sans';
      }

      .cls-2, .cls-6 {
        stroke: #b5b5b5;
      }

      .cls-2, .cls-7, .cls-9 {
        stroke-dasharray: 3 3;
      }

      .cls-12 {
        fill: #b5b5b5;
      }

      .cls-13 {
        fill: #231f20;
      }

      .cls-4 {
        stroke: #231f20;
      }

      .cls-5, .cls-9 {
        stroke: #858585;
      }

      .cls-14 {
        fill: #d4d4d4;
      }

      .cls-15, .cls-11 {
        font-size: 14px;
      }

      .cls-16 {
        fill: #fff;
      }

      .cls-8 {
        stroke: #000;
      }

      .cls-17 {
        fill: #858585;
      }

      .cls-18 {
        font-family: DejaVuSans-Oblique, 'DejaVu Sans';
        font-style: oblique;
      }
    </style>
  </defs>
  <!-- Generator: Adobe Illustrator 28.6.0, SVG Export Plug-In . SVG Version: 1.2.0 Build 709)  -->
  <g>
    <g id="Layer_1">
      <circle class="cls-14" cx="210.31" cy="101.89" r="85.86"/>
      <circle cx="140.15" cy="101.89" r="15.7"/>
      <circle cx="176.98" cy="40.13" r="15.7"/>
      <circle cx="108.75" cy="101.89" r="15.7"/>
      <circle cx="129.68" cy="40.13" r="15.7"/>
      <g>
        <line class="cls-8" x1="269.94" y1="48.28" x2="269.94" y2="93.73"/>
        <path d="M269.94,50.08l3.6,2.19.08-.12-2.33-5.88c-.45-2.05-.9-4.09-1.35-6.14-.45,2.05-.9,4.09-1.35,6.14l-2.33,5.88.06.12,3.62-2.19Z"/>
        <path d="M269.94,91.94l3.6-2.19.08.12-2.33,5.88c-.45,2.05-.9,4.09-1.35,6.14-.45-2.05-.9-4.09-1.35-6.14l-2.33-5.88.06-.12,3.62,2.19Z"/>
      </g>
      <g>
        <line class="cls-8" x1="261.1" y1="268.57" x2="159.51" y2="268.57"/>
        <path d="M259.31,268.57l-2.19,3.6.12.08,5.88-2.33c2.05-.45,4.09-.9,6.14-1.35-2.05-.45-4.09-.9-6.14-1.35l-5.88-2.33-.12.06,2.19,3.62Z"/>
        <path d="M161.3,268.57l2.19,3.6-.12.08-5.87-2.33c-2.05-.45-4.09-.9-6.14-1.35,2.05-.45,4.09-.9,6.14-1.35l5.87-2.33.12.06-2.19,3.62Z"/>
      </g>
      <g>
        <line class="cls-8" x1="243.63" y1="226.46" x2="243.63" y2="319.85"/>
        <path d="M243.63,228.26l3.6,2.19.08-.12-2.33-5.88c-.45-2.05-.9-4.09-1.35-6.14-.45,2.05-.9,4.09-1.35,6.14l-2.33,5.88.06.12,3.62-2.19Z"/>
        <path d="M243.63,318.06l3.6-2.19.08.12-2.33,5.87c-.45,2.05-.9,4.09-1.35,6.14-.45-2.05-.9-4.09-1.35-6.14l-2.33-5.88.06-.12,3.62,2.19Z"/>
      </g>
      <g>
        <line class="cls-8" x1="251.78" y1="218.31" x2="282.78" y2="218.31"/>
        <path d="M253.57,218.31l2.19-3.6-.12-.08-5.88,2.33c-2.05.45-4.09.9-6.14,1.35,2.05.45,4.09.9,6.14,1.35l5.88,2.33.12-.06-2.19-3.62Z"/>
        <path d="M280.98,218.31l-2.19-3.6.12-.08,5.88,2.33c2.05.45,4.09.9,6.14,1.35-2.05.45-4.09.9-6.14,1.35l-5.88,2.33-.12-.06,2.19-3.62Z"/>
      </g>
      <line class="cls-1" x1="210.31" y1="101.89" x2="296.16" y2="101.89"/>
      <g>
        <line class="cls-3" x1="210.31" y1="101.89" x2="264.28" y2="46"/>
        <path class="cls-16" d="M263.03,47.29l-4.11-.93.03-.15,5.76-2.6c1.75-1.16,3.49-2.32,5.24-3.48-1.1,1.79-2.2,3.57-3.29,5.36l-2.4,5.85-.13.05-1.08-4.09Z"/>
      </g>
      <text class="cls-11" transform="translate(280.65 78.47)"><tspan x="0" y="0">b = a/R</tspan></text>
      <text class="cls-11" transform="translate(333.19 83.13) scale(.58)"><tspan x="0" y="0">★</tspan></text>
      <text class="cls-15" transform="translate(340.5 78.47)"><tspan class="cls-10" x="0" y="0" xml:space="preserve"> cos </tspan><tspan class="cls-18" x="32.46" y="0">i</tspan></text>
      <text class="cls-11" transform="translate(193.28 412.24)"><tspan x="0" y="0">Time</tspan></text>
      <text class="cls-11" transform="translate(206.35 262.28)"><tspan x="0" y="0">T</tspan></text>
      <text class="cls-11" transform="translate(229.85 244.78)"><tspan x="0" y="0">δ</tspan></text>
      <text class="cls-11" transform="translate(263.06 212.92)"><tspan x="0" y="0">τ</tspan></text>
      <text class="cls-11" transform="translate(19.01 349.06) rotate(-90)"><tspan x="0" y="0">Normalized Flux</tspan></text>
      <g>
        <polyline class="cls-4" points="384.87 393.24 28.19 393.24 28.19 199.89"/>
        <path class="cls-13" d="M383.08,393.24l-2.19,3.6.12.08,5.88-2.33c2.05-.45,4.09-.9,6.14-1.35-2.05-.45-4.09-.9-6.14-1.35l-5.88-2.33-.12.06,2.19,3.62Z"/>
        <path class="cls-13" d="M28.19,201.68l-3.6,2.19-.08-.12,2.33-5.88c.45-2.05.9-4.09,1.35-6.14.45,2.05.9,4.09,1.35,6.14l2.33,5.88-.06.12-3.62-2.19Z"/>
      </g>
      <polyline class="cls-5" points="28.19 218.31 129.68 218.31 176.98 328 243.63 328 290.93 218.31 393.03 218.31"/>
      <polyline class="cls-6" points="28.19 262.28 108.75 262.28 140.15 371.98 280.46 371.98 311.86 262.28 393.03 262.28"/>
      <g>
        <line class="cls-9" x1="129.68" y1="55.83" x2="129.68" y2="210.16"/>
        <path class="cls-17" d="M129.68,208.36l3.6-2.19.08.12-2.33,5.88c-.45,2.05-.9,4.09-1.35,6.14-.45-2.05-.9-4.09-1.35-6.14l-2.33-5.88.06-.12,3.62,2.19Z"/>
      </g>
      <line class="cls-7" x1="129.68" y1="40.13" x2="129.68" y2="55.83"/>
      <g>
        <line class="cls-2" x1="108.75" y1="117.59" x2="108.75" y2="254.13"/>
        <path class="cls-12" d="M108.75,252.34l3.6-2.19.08.12-2.33,5.88c-.45,2.05-.9,4.09-1.35,6.14-.45-2.05-.9-4.09-1.35-6.14l-2.33-5.88.06-.12,3.62,2.19Z"/>
      </g>
      <g>
        <line class="cls-2" x1="140.15" y1="117.59" x2="140.15" y2="363.82"/>
        <path class="cls-12" d="M140.15,362.03l3.6-2.19.08.12-2.33,5.88c-.45,2.05-.9,4.09-1.35,6.14-.45-2.05-.9-4.09-1.35-6.14l-2.33-5.88.06-.12,3.62,2.19Z"/>
      </g>
      <line class="cls-7" x1="108.75" y1="101.89" x2="108.75" y2="117.59"/>
      <g>
        <line class="cls-9" x1="176.98" y1="55.83" x2="176.98" y2="319.85"/>
        <path class="cls-17" d="M176.98,318.06l3.6-2.19.08.12-2.33,5.88c-.45,2.05-.9,4.09-1.35,6.14-.45-2.05-.9-4.09-1.35-6.14l-2.33-5.88.06-.12,3.62,2.19Z"/>
      </g>
      <line class="cls-7" x1="176.98" y1="40.13" x2="176.98" y2="55.83"/>
    </g>
  </g>
</svg>